<?xml version="1.0" standalone="no"?><!DOCTYPE svg PUBLIC "-//W3C//DTD SVG 1.1//EN" "http://www.w3.org/Graphics/SVG/1.1/DTD/svg11.dtd"><svg viewBox="0 0 800 220" style="background-color:#ffffff00" version="1.1" xmlns="http://www.w3.org/2000/svg" xmlns:xlink="http://www.w3.org/1999/xlink" xml:space="preserve" x="0px" y="0px" width="800px" height="220px">  <path d="M 123.4227 167.7792 L 117.3011 171.6609 L 100.8987 145.8346 L 107.0179 141.9505 L 123.4227 167.7792 Z" fill="#160144"/>  <path d="M 131.04 163.2026 L 124.2277 165.6647 L 112.6875 133.7529 L 119.5047 131.2934 L 131.04 163.2026 Z" fill="#160144"/>  <path d="M 139.2809 159.584 L 135.4697 132.8742 L 128.2971 133.9017 L 132.22 161.3909 C 132.4982 162.9693 133.5939 166.2156 137.1591 167.4318 C 137.7752 166.0568 139.6337 162.1851 139.2809 159.584 L 139.2809 159.584 Z" fill="#160144"/>  <path d="M 136.0039 201.2696 C 127.1469 201.2696 121.9816 193.9778 116.5184 186.2543 C 110.8588 178.2676 105.008 169.998 94.3895 167.3226 L 96.1808 160.2194 C 109.4302 163.5601 116.6798 173.8002 122.5059 182.0251 C 127.7357 189.4112 131.1865 194.2406 136.0039 194.2406 C 139.6014 194.2406 147.9665 192.8607 147.9665 180.0741 L 155.3055 180.0741 C 155.3055 189.7336 151.3801 194.8809 148.0957 197.4919 C 143.4696 201.17 138.0959 201.2696 136.0039 201.2696 L 136.0039 201.2696 Z" fill="#160144"/>  <path d="M 136.6847 181.7037 C 136.461 177.4846 138.4609 169.5674 147.0173 165.1993 C 147.9566 160.8958 150.3913 153.4935 153.4472 147.145 L 159.9414 150.3218 C 156.4036 157.6681 154.0434 166.2702 153.8148 168.3203 L 153.8148 170.4945 L 151.7875 171.5081 C 145.4424 174.0744 143.8845 179.2963 144.0063 181.7037 L 136.6847 181.7037 Z" fill="#160144"/>  <path d="M 56.457 150.0536 L 50.0049 146.7479 L 63.9724 119.5243 L 70.4171 122.8276 L 56.457 150.0536 Z" fill="#f7d32c"/>  <path d="M 64.268 154.2878 L 58.688 149.6665 L 80.3673 123.5523 L 85.9499 128.1736 L 64.268 154.2878 Z" fill="#f7d32c"/>  <path d="M 71.5698 159.5493 L 92.6752 142.7198 L 88.1585 137.0611 L 66.432 154.3821 C 65.2096 155.4245 62.9662 158.0155 63.724 161.7036 C 65.2245 161.5299 69.5102 161.1626 71.5698 159.5493 L 71.5698 159.5493 Z" fill="#f7d32c"/>  <path d="M 33.9479 177.8705 C 29.4536 170.2461 33.1281 162.0958 37.0162 153.4737 C 41.041 144.549 45.2024 135.3238 42.1242 124.823 L 49.1602 122.7655 C 53.0012 135.8623 47.8434 147.2989 43.7019 156.4868 C 39.9826 164.7415 37.8188 170.0029 40.2658 174.1527 C 42.092 177.2549 47.5279 183.7525 58.5638 177.2698 L 62.278 183.5789 C 53.9428 188.488 47.513 187.7185 43.595 186.2096 C 38.0746 184.09 35.0113 179.6723 33.9479 177.8705 L 33.9479 177.8705 Z" fill="#f7d32c"/>  <path d="M 51.0062 168.628 C 54.539 166.2951 62.3848 164.0018 70.489 169.1491 C 74.6779 167.7742 82.4616 166.0271 89.4827 165.4363 L 90.0988 172.7381 C 81.9623 173.418 73.3487 175.751 71.4606 176.5949 L 69.4656 177.4884 L 67.7314 176.1579 C 62.3028 171.9935 57.0607 173.4081 55.0507 174.7384 L 51.0062 168.628 Z" fill="#f7d32c"/>  <path d="M 37.4364 82.6411 L 37.4364 75.409 L 68.3622 74.307 L 68.3622 81.5392 L 37.4364 82.6411 Z" fill="#fc3053"/>  <path d="M 38.1591 91.5213 L 39.4784 84.4058 L 72.8717 90.5707 L 71.5574 97.6863 L 38.1591 91.5213 Z" fill="#fc3053"/>  <path d="M 37.1231 100.456 L 62.1265 110.6516 L 64.8694 103.9529 L 39.133 93.4573 C 37.6274 92.8987 34.2684 92.2013 31.4088 94.6684 C 32.2957 95.887 34.7082 99.451 37.1231 100.456 L 37.1231 100.456 Z" fill="#fc3053"/>  <path d="M 2.7607 76.5829 C 7.2351 68.9438 16.1444 68.1744 25.5779 67.3629 C 35.3417 66.5141 45.4309 65.6454 53.1029 57.8374 L 58.3401 62.9699 C 48.7626 72.7088 36.2559 73.7859 26.2089 74.6571 C 17.1804 75.4388 11.5233 76.1238 9.0911 80.2834 C 7.2749 83.3833 4.2414 91.298 15.2947 97.7533 L 11.5904 104.0747 C 3.2401 99.1977 0.7781 93.2189 0.1769 89.0618 C -0.6629 83.2145 1.7023 78.3873 2.7607 76.5829 L 2.7607 76.5829 Z" fill="#fc3053"/>  <path d="M 19.1605 86.9522 C 22.9195 88.8955 28.7505 94.6188 28.2064 104.1988 C 31.4536 107.1769 36.7802 113.1161 40.723 118.9509 L 34.6386 123.0411 C 30.0796 116.2879 23.7546 109.907 22.095 108.6759 L 20.3459 107.3705 L 20.3459 105.2112 C 21.3322 98.4458 17.541 94.5665 15.3994 93.4647 L 19.1605 86.9522 Z" fill="#fc3053"/>  <path d="M 86.6455 33.5151 L 92.7721 29.6459 L 109.1321 55.507 L 103.0006 59.3762 L 86.6455 33.5151 Z" fill="#bb4ba6"/>  <path d="M 79.0207 38.0768 L 85.838 35.6322 L 97.3186 67.5614 L 90.4989 70.0085 L 79.0207 38.0768 Z" fill="#bb4ba6"/>  <path d="M 70.7724 41.678 L 74.5313 68.3927 L 81.7113 67.3877 L 77.8405 39.8885 C 77.5598 38.3076 76.4766 35.0613 72.904 33.8303 C 72.2928 35.2127 70.4271 39.0869 70.7724 41.678 L 70.7724 41.678 Z" fill="#bb4ba6"/>  <path d="M 74.1287 0 C 82.9859 0.0174 88.1361 7.3215 93.5844 15.0524 C 99.2341 23.0515 105.0701 31.3311 115.6786 34.0263 L 113.8774 41.1269 C 100.6329 37.7617 93.4031 27.5115 87.5921 19.2717 C 82.3771 11.8708 78.9362 7.0485 74.114 7.0385 C 70.5213 7.0336 62.1464 8.401 62.1215 21.1852 L 54.7874 21.1852 C 54.8098 11.5233 58.7377 6.3857 62.0345 3.7773 C 66.6631 0.1116 72.037 -0.0025 74.1287 0 L 74.1287 0 Z" fill="#bb4ba6"/>  <path d="M 73.4109 19.5556 C 73.6245 23.7798 71.6096 31.6894 63.0507 36.0426 C 62.1041 40.3437 59.6519 47.7536 56.5837 54.0922 L 49.9933 50.9031 C 53.5435 43.5641 55.9211 34.9694 56.1546 32.9119 L 56.1546 30.7454 L 58.1844 29.7362 C 64.5298 27.1799 66.2059 21.9605 66.0892 19.5556 L 73.4109 19.5556 Z" fill="#bb4ba6"/>  <path d="M 154.2572 51.1364 L 160.652 54.5391 L 146.2672 81.5442 L 139.8721 78.1441 L 154.2572 51.1364 Z" fill="#65c44c"/>  <path d="M 146.5106 46.7807 L 152.0161 51.4863 L 129.9344 77.263 L 124.4289 72.5599 L 146.5106 46.7807 Z" fill="#65c44c"/>  <path d="M 139.2908 41.4075 L 117.9221 57.907 L 122.3543 63.635 L 144.3492 46.6541 C 145.5864 45.6316 147.8721 43.0753 147.1665 39.3748 C 145.666 39.5262 141.3778 39.8215 139.2908 41.4075 L 139.2908 41.4075 Z" fill="#65c44c"/>  <path d="M 177.1935 23.6721 C 181.5711 31.3682 177.7698 39.4567 173.745 48.0142 C 169.5811 56.8795 165.2781 66.0375 168.1948 76.5854 L 161.1242 78.5362 C 157.4869 65.3773 162.8235 54.0227 167.1117 44.9045 C 170.9576 36.7093 173.1935 31.4799 170.8183 27.2857 C 169.0445 24.1659 163.7079 17.579 152.5727 23.8904 L 148.9553 17.5219 C 157.3676 12.7492 163.7775 13.6155 167.6781 15.184 C 173.1637 17.3854 176.1649 21.8528 177.1935 23.6721 L 177.1935 23.6721 Z" fill="#65c44c"/>  <path d="M 159.9912 32.6464 C 156.4285 34.9248 148.5479 37.1014 140.5206 31.825 C 136.312 33.1354 128.4984 34.7685 121.4699 35.2449 L 120.973 27.9358 C 129.1121 27.3825 137.763 25.181 139.666 24.3744 L 141.6759 23.5081 L 143.3851 24.8609 C 148.7515 29.1048 154.0086 27.772 156.0459 26.4765 L 159.9912 32.6464 Z" fill="#65c44c"/>  <path d="M 173.3469 118.462 L 173.3469 125.6942 L 142.4212 127.1287 L 142.4212 119.8941 L 173.3469 118.462 Z" fill="#65c7de"/>  <path d="M 172.4481 109.5844 L 171.2059 116.7148 L 137.748 110.9171 L 138.9877 103.7842 L 172.4481 109.5844 Z" fill="#65c7de"/>  <path d="M 173.3874 100.6398 L 148.2746 90.7147 L 145.6088 97.4431 L 171.4544 107.661 C 172.97 108.2044 176.3289 108.8597 179.1612 106.3678 C 178.2618 105.1542 175.8121 101.6225 173.3874 100.6398 L 173.3874 100.6398 Z" fill="#65c7de"/>  <path d="M 208.0056 124.138 C 203.6131 131.8244 194.7188 132.6931 185.2977 133.6088 C 175.5438 134.5594 165.457 135.5397 157.8696 143.4272 L 152.5827 138.3566 C 162.0483 128.5111 174.5401 127.295 184.5823 126.3195 C 193.6007 125.4411 199.2504 124.6865 201.6354 120.5095 C 203.4144 117.3899 206.3609 109.4379 195.2454 103.1067 L 198.8777 96.7431 C 207.2801 101.5307 209.8142 107.4772 210.4552 111.6294 C 211.3594 117.4718 209.044 122.3238 208.0056 124.138 L 208.0056 124.138 Z" fill="#65c7de"/>  <path d="M 191.494 113.9475 C 187.7126 112.0463 181.8195 106.3901 182.2618 96.8027 C 178.9823 93.8543 173.591 87.9797 169.5911 82.1845 L 175.6283 78.0225 C 180.2593 84.7359 186.1803 91.0449 187.8548 92.2585 L 189.6236 93.5466 L 189.6236 95.7107 C 188.7143 102.4862 192.5453 106.3231 194.6969 107.4052 L 191.494 113.9475 Z" fill="#65c7de"/>  <path d="M 239.8263 179.3695 L 247.1455 184.5667 L 269.1328 153.692 L 261.8135 148.4951 L 239.8263 179.3695 Z" fill="#160144"/>  <path d="M 230.7084 173.2096 L 238.9767 176.6991 L 255.3392 137.9794 L 247.0709 134.4924 L 230.7084 173.2096 Z" fill="#160144"/>  <path d="M 220.7507 168.1962 L 227.2152 135.4057 L 236.0252 137.138 L 229.3668 170.8865 C 228.9196 172.8274 227.3544 176.7686 222.8577 178.0442 C 222.1868 176.2971 220.1496 171.3828 220.7507 168.1962 L 220.7507 168.1962 Z" fill="#160144"/>  <path d="M 222.0675 219.9729 C 233.0239 220.5487 239.8909 211.8672 247.1654 202.6743 C 254.6832 193.1588 262.4645 183.3206 275.7762 180.7047 L 274.0221 171.7999 C 257.4162 175.0659 247.7716 187.252 240.03 197.0553 C 233.0737 205.851 228.5121 211.2218 222.5446 210.9092 C 218.1023 210.6759 207.8416 208.4174 208.6764 192.6028 L 199.6032 192.1164 C 198.9721 204.0741 203.4888 210.6958 207.3794 214.1405 C 212.8651 218.9901 219.4787 219.8339 222.0675 219.9729 L 222.0675 219.9729 Z" fill="#160144"/>  <path d="M 222.4999 195.9583 C 223.0513 190.7465 221.0936 180.8288 210.808 174.8624 C 209.9236 169.4818 207.4043 159.9266 204.0454 151.8804 L 195.4311 155.3798 C 199.3267 164.6968 201.6869 175.4879 201.8311 178.0442 L 201.8311 180.7444 L 204.2908 181.8861 C 211.9676 185.4749 213.7794 192.037 213.4664 195.0053 L 222.4999 195.9583 Z" fill="#160144"/>  <path d="M 364.7235 171.9259 L 367.5517 180.0741 L 341.7114 180.0741 L 344.5395 171.9259 L 364.7235 171.9259 Z" fill="#160144"/>  <path d="M 367.5517 180.3788 L 364.7235 172.0421 L 354.6485 142.2989 L 344.5438 172.0421 L 341.7114 180.3788 L 336.8041 195.0801 C 335.0914 200.3181 332.3935 200.4444 330.7986 200.4444 L 323.0926 200.4444 L 323.0926 192.2963 L 324.9694 192.2963 C 325.7018 192.2963 327.2383 192.3153 328.1851 189.3763 L 349.3877 131.1852 L 359.8543 131.1852 L 381.0653 188.5614 C 382.004 191.5005 383.3927 191.4815 384.1251 191.4815 L 385.7579 191.4815 L 385.7579 200.4444 L 378.1995 200.4444 C 376.6045 200.4444 374.1508 200.3181 372.438 195.0801 L 367.5517 180.3788 Z" fill="#160144"/>  <path d="M 485.0458 189.9452 L 485.0458 156.8376 C 485.0458 151.2715 481.9189 150.7407 479.3852 150.7407 L 455.7477 150.7407 L 455.7477 136.8889 L 445.9817 136.8889 L 445.9817 150.7407 L 424.822 150.7407 L 424.822 176.3745 C 424.822 187.3725 415.931 192.5557 408.6587 192.5557 C 400.7299 192.5557 399.5931 186.1473 399.5931 183.8147 L 399.5931 155.4399 C 399.5931 150.5387 395.7507 150.7407 394.6902 150.7407 L 384.1302 150.7407 L 384.1302 158.8889 L 388.5656 158.8889 C 390.2365 158.8889 389.8271 160.1606 389.8271 160.7331 L 389.8271 185.8189 C 389.8271 199.2334 400.7278 201.3979 406.0391 201.3979 C 418.7067 201.3979 424.0056 192.3199 424.822 190.3494 L 424.822 195.6529 C 424.822 199.2991 427.7595 200.4444 429.1907 200.4444 L 440.2849 200.4444 L 440.2849 192.2963 L 435.8685 192.2963 C 434.4292 192.2963 434.588 191.2857 434.588 190.5026 L 434.588 158.8889 L 445.9817 158.8889 L 445.9817 185.0008 C 445.9817 196.2851 456.7262 200.4444 460.9766 200.4444 L 467.9552 200.4444 L 467.9552 192.2963 L 464.098 192.2963 C 459.1151 192.2963 455.7477 187.8753 455.7477 183.0583 L 455.7477 158.8889 L 473.5099 158.8889 C 474.9744 158.8889 475.2798 159.3775 475.2798 160.7668 L 475.2798 195.3748 C 475.2798 199.4675 478.1416 200.4444 479.6945 200.4444 L 490.7426 200.4444 L 490.7426 192.2963 L 486.6605 192.2963 C 485.1076 192.2963 485.0458 191.0751 485.0458 190.1658 L 485.0458 189.9452 Z" fill="#160144"/>  <path d="M 484.2319 131.1852 L 476.0936 131.1852 L 476.0936 140.963 L 484.2319 140.963 L 484.2319 131.1852 Z" fill="#160144"/>  <path d="M 504.4428 162.8799 C 504.4428 157.6506 510.388 157.103 513.216 157.103 C 516.3262 157.103 520.8546 158.6357 520.8546 160.8672 L 520.8546 163.7778 L 529.4146 163.7778 C 529.4146 161.8662 531.6301 149.4452 513.4323 149.4452 C 507.3298 149.4452 494.9105 151.7053 494.9105 163.4274 C 494.9105 178.8041 521.8788 178.8546 521.8788 187.4191 C 521.8788 191.9831 517.5187 193.6252 513.4323 193.6252 C 507.7089 193.6252 501.3328 190.2483 498.5047 186.3831 L 493.3238 192.5304 C 495.0157 194.5599 500.9541 201.4737 512.9441 201.4737 C 522.1483 201.4737 531.4743 196.8419 531.4743 186.8125 C 531.4743 171.0062 504.4428 171.882 504.4428 162.8799 L 504.4428 162.8799 Z" fill="#160144"/>  <path d="M 596.6182 149.2717 C 586.7366 149.2717 581.4256 156.2189 579.0435 160.2273 C 577.2506 153.9284 572.7586 149.3474 564.3836 149.3474 C 553.7234 149.3474 548.8541 157.2379 546.8973 160.682 L 546.8973 154.9933 C 546.8973 150.9091 544.3172 150.7407 543.0086 150.7407 L 531.4344 150.7407 L 531.4344 158.8889 L 535.4009 158.8889 C 537.1517 158.8889 537.9451 159.0152 537.9451 160.4805 L 537.9451 200.4444 L 547.7111 200.4444 L 547.7111 173.7498 C 547.7111 167.0044 552.9448 158.383 562.01 158.383 C 569.2867 158.383 570.4985 164.2273 570.4985 167.4611 L 570.4985 200.4444 L 580.2645 200.4444 L 580.2645 174.5581 C 580.2645 163.0296 588.3788 158.383 594.9946 158.383 C 600.5078 158.383 603.8657 162.1894 603.8657 166.2399 L 603.8657 200.4444 L 612.8179 200.4444 L 612.8179 164.0151 C 612.8179 152.4023 603.2644 149.2717 596.556 149.2717 L 596.6182 149.2717 Z" fill="#160144"/>  <path d="M 671.4141 151.5556 L 680.3662 151.5556 L 680.3662 144.2442 C 680.3662 141.9453 678.2368 129.6842 653.8021 129.6842 C 637.4644 129.6842 619.1339 141.9453 619.1339 164.7662 C 619.1339 178.7536 627.6353 201.3135 653.7872 201.3135 C 662.3726 201.3135 671.5219 199.68 681.6559 189.861 L 676.1766 182.7536 C 673.9713 184.6315 666.9515 192.0757 654.6036 192.0757 C 642.9963 192.0757 629.4281 182.5851 629.4281 164.5136 C 629.4281 153.7263 637.0807 139.0061 654.4113 139.0061 C 661.768 139.0061 671.4141 141.6253 671.4141 147.84 L 671.4141 151.5556 Z" fill="#160144"/>  <path d="M 789.4202 151.5556 L 798.3723 151.5556 L 798.3723 144.2442 C 798.3723 141.9453 796.2429 129.6842 771.8082 129.6842 C 755.4706 129.6842 737.4696 141.9453 737.4696 164.7662 C 737.4696 178.7536 745.9793 201.3135 772.1311 201.3135 C 780.7166 201.3135 789.8661 199.68 800 189.861 L 794.5206 182.7536 C 792.3154 184.6315 785.2872 192.0757 772.9478 192.0757 C 761.3406 192.0757 747.7723 182.5851 747.7723 164.5136 C 747.7723 153.7263 755.0953 139.0061 772.4261 139.0061 C 779.7827 139.0061 789.4202 141.6253 789.4202 147.84 L 789.4202 151.5556 Z" fill="#160144"/>  <path d="M 736.7825 191.4815 C 735.9661 191.4815 733.3959 191.431 732.3017 188.6014 C 731.2661 185.4436 725.6354 175.1577 722.0917 170.1979 C 727.6891 167.4948 733.7241 162.0397 733.7241 151.1343 C 733.7241 142.6291 728.4047 131.1852 713.7756 131.1852 L 682.8077 131.1852 L 682.8077 139.3333 L 689.3184 139.3333 L 689.3184 199.6296 L 699.0844 199.6296 L 699.0844 171.9259 L 710.9948 171.9259 C 712.5182 172.3048 714.5499 174.0312 718.0767 181.8459 L 724.078 194.937 C 725.1638 196.958 726.1994 200.4444 731.3167 200.4444 L 738.9623 200.4444 L 738.9623 191.4815 L 736.7825 191.4815 ZM 699.0844 139.3333 L 714.1678 139.3333 C 717.1813 139.3333 723.4973 141.26 723.4973 151.2726 C 723.4973 156.6704 720.9302 163.7778 713.4052 163.7778 L 699.0844 163.7778 L 699.0844 139.3333 Z" fill="#160144"/></svg>